<mxfile host="app.diagrams.net" agent="Mozilla/5.0 (Windows NT 10.0; Win64; x64) AppleWebKit/537.36 (KHTML, like Gecko) Chrome/133.0.0.0 Safari/537.36" version="26.2.4">
  <diagram id="R2lEEEUBdFMjLlhIrx00" name="Page-1">
    <mxGraphModel dx="1064" dy="1650" grid="1" gridSize="10" guides="1" tooltips="1" connect="1" arrows="1" fold="1" page="1" pageScale="1" pageWidth="850" pageHeight="1100" math="0" shadow="0" extFonts="Permanent Marker^https://fonts.googleapis.com/css?family=Permanent+Marker">
      <root>
        <mxCell id="0" />
        <mxCell id="1" parent="0" />
        <mxCell id="XEy3tNZ7Zug2hROYCkF4-38" style="edgeStyle=none;rounded=0;orthogonalLoop=1;jettySize=auto;html=1;entryX=0.5;entryY=1;entryDx=0;entryDy=0;endArrow=none;startFill=0;" edge="1" parent="1" target="XEy3tNZ7Zug2hROYCkF4-37">
          <mxGeometry relative="1" as="geometry">
            <mxPoint x="830" y="587" as="sourcePoint" />
          </mxGeometry>
        </mxCell>
        <mxCell id="XEy3tNZ7Zug2hROYCkF4-73" style="edgeStyle=none;rounded=0;orthogonalLoop=1;jettySize=auto;html=1;exitX=0;exitY=1;exitDx=0;exitDy=0;endArrow=none;startFill=0;" edge="1" parent="1" source="XEy3tNZ7Zug2hROYCkF4-1" target="XEy3tNZ7Zug2hROYCkF4-63">
          <mxGeometry relative="1" as="geometry" />
        </mxCell>
        <mxCell id="XEy3tNZ7Zug2hROYCkF4-74" style="edgeStyle=none;rounded=0;orthogonalLoop=1;jettySize=auto;html=1;exitX=0.25;exitY=1;exitDx=0;exitDy=0;endArrow=none;startFill=0;" edge="1" parent="1" source="XEy3tNZ7Zug2hROYCkF4-1" target="XEy3tNZ7Zug2hROYCkF4-64">
          <mxGeometry relative="1" as="geometry" />
        </mxCell>
        <mxCell id="XEy3tNZ7Zug2hROYCkF4-75" style="edgeStyle=none;rounded=0;orthogonalLoop=1;jettySize=auto;html=1;exitX=0.5;exitY=1;exitDx=0;exitDy=0;endArrow=none;startFill=0;" edge="1" parent="1" source="XEy3tNZ7Zug2hROYCkF4-1" target="XEy3tNZ7Zug2hROYCkF4-65">
          <mxGeometry relative="1" as="geometry" />
        </mxCell>
        <mxCell id="XEy3tNZ7Zug2hROYCkF4-76" style="edgeStyle=none;rounded=0;orthogonalLoop=1;jettySize=auto;html=1;exitX=0.75;exitY=1;exitDx=0;exitDy=0;endArrow=none;startFill=0;" edge="1" parent="1" source="XEy3tNZ7Zug2hROYCkF4-1" target="XEy3tNZ7Zug2hROYCkF4-67">
          <mxGeometry relative="1" as="geometry" />
        </mxCell>
        <mxCell id="XEy3tNZ7Zug2hROYCkF4-77" style="edgeStyle=none;rounded=0;orthogonalLoop=1;jettySize=auto;html=1;exitX=0.75;exitY=1;exitDx=0;exitDy=0;endArrow=none;startFill=0;" edge="1" parent="1" source="XEy3tNZ7Zug2hROYCkF4-1" target="XEy3tNZ7Zug2hROYCkF4-66">
          <mxGeometry relative="1" as="geometry" />
        </mxCell>
        <mxCell id="XEy3tNZ7Zug2hROYCkF4-78" style="edgeStyle=none;rounded=0;orthogonalLoop=1;jettySize=auto;html=1;exitX=1;exitY=1;exitDx=0;exitDy=0;endArrow=none;startFill=0;" edge="1" parent="1" source="XEy3tNZ7Zug2hROYCkF4-1" target="XEy3tNZ7Zug2hROYCkF4-68">
          <mxGeometry relative="1" as="geometry" />
        </mxCell>
        <mxCell id="XEy3tNZ7Zug2hROYCkF4-79" style="edgeStyle=none;rounded=0;orthogonalLoop=1;jettySize=auto;html=1;exitX=1;exitY=0.75;exitDx=0;exitDy=0;endArrow=none;startFill=0;" edge="1" parent="1" source="XEy3tNZ7Zug2hROYCkF4-1" target="XEy3tNZ7Zug2hROYCkF4-69">
          <mxGeometry relative="1" as="geometry" />
        </mxCell>
        <mxCell id="XEy3tNZ7Zug2hROYCkF4-80" style="edgeStyle=none;rounded=0;orthogonalLoop=1;jettySize=auto;html=1;exitX=1;exitY=0.75;exitDx=0;exitDy=0;endArrow=none;startFill=0;" edge="1" parent="1" source="XEy3tNZ7Zug2hROYCkF4-1" target="XEy3tNZ7Zug2hROYCkF4-70">
          <mxGeometry relative="1" as="geometry" />
        </mxCell>
        <mxCell id="XEy3tNZ7Zug2hROYCkF4-81" style="edgeStyle=none;rounded=0;orthogonalLoop=1;jettySize=auto;html=1;exitX=1;exitY=0.75;exitDx=0;exitDy=0;endArrow=none;startFill=0;" edge="1" parent="1" source="XEy3tNZ7Zug2hROYCkF4-1" target="XEy3tNZ7Zug2hROYCkF4-71">
          <mxGeometry relative="1" as="geometry" />
        </mxCell>
        <mxCell id="XEy3tNZ7Zug2hROYCkF4-82" style="edgeStyle=none;rounded=0;orthogonalLoop=1;jettySize=auto;html=1;exitX=1;exitY=0.75;exitDx=0;exitDy=0;endArrow=none;startFill=0;" edge="1" parent="1" source="XEy3tNZ7Zug2hROYCkF4-1" target="XEy3tNZ7Zug2hROYCkF4-72">
          <mxGeometry relative="1" as="geometry" />
        </mxCell>
        <mxCell id="XEy3tNZ7Zug2hROYCkF4-1" value="Products" style="rounded=0;whiteSpace=wrap;html=1;" vertex="1" parent="1">
          <mxGeometry x="770" y="590" width="120" height="60" as="geometry" />
        </mxCell>
        <mxCell id="XEy3tNZ7Zug2hROYCkF4-2" value="id" style="ellipse;whiteSpace=wrap;html=1;" vertex="1" parent="1">
          <mxGeometry x="170" width="120" height="50" as="geometry" />
        </mxCell>
        <mxCell id="XEy3tNZ7Zug2hROYCkF4-20" style="rounded=0;orthogonalLoop=1;jettySize=auto;html=1;exitX=0.25;exitY=0;exitDx=0;exitDy=0;endArrow=none;startFill=0;" edge="1" parent="1" source="XEy3tNZ7Zug2hROYCkF4-3" target="XEy3tNZ7Zug2hROYCkF4-9">
          <mxGeometry relative="1" as="geometry" />
        </mxCell>
        <mxCell id="XEy3tNZ7Zug2hROYCkF4-21" style="edgeStyle=none;rounded=0;orthogonalLoop=1;jettySize=auto;html=1;exitX=0;exitY=0;exitDx=0;exitDy=0;endArrow=none;startFill=0;" edge="1" parent="1" source="XEy3tNZ7Zug2hROYCkF4-3" target="XEy3tNZ7Zug2hROYCkF4-10">
          <mxGeometry relative="1" as="geometry" />
        </mxCell>
        <mxCell id="XEy3tNZ7Zug2hROYCkF4-23" style="edgeStyle=none;rounded=0;orthogonalLoop=1;jettySize=auto;html=1;entryX=1;entryY=0.5;entryDx=0;entryDy=0;endArrow=none;startFill=0;" edge="1" parent="1" source="XEy3tNZ7Zug2hROYCkF4-3" target="XEy3tNZ7Zug2hROYCkF4-12">
          <mxGeometry relative="1" as="geometry" />
        </mxCell>
        <mxCell id="XEy3tNZ7Zug2hROYCkF4-24" style="edgeStyle=none;rounded=0;orthogonalLoop=1;jettySize=auto;html=1;exitX=0;exitY=0.75;exitDx=0;exitDy=0;endArrow=none;startFill=0;" edge="1" parent="1" source="XEy3tNZ7Zug2hROYCkF4-3" target="XEy3tNZ7Zug2hROYCkF4-13">
          <mxGeometry relative="1" as="geometry" />
        </mxCell>
        <mxCell id="XEy3tNZ7Zug2hROYCkF4-25" style="edgeStyle=none;rounded=0;orthogonalLoop=1;jettySize=auto;html=1;exitX=0;exitY=1;exitDx=0;exitDy=0;endArrow=none;startFill=0;" edge="1" parent="1" source="XEy3tNZ7Zug2hROYCkF4-3" target="XEy3tNZ7Zug2hROYCkF4-14">
          <mxGeometry relative="1" as="geometry" />
        </mxCell>
        <mxCell id="XEy3tNZ7Zug2hROYCkF4-26" style="edgeStyle=none;rounded=0;orthogonalLoop=1;jettySize=auto;html=1;exitX=0.25;exitY=1;exitDx=0;exitDy=0;endArrow=none;startFill=0;" edge="1" parent="1" source="XEy3tNZ7Zug2hROYCkF4-3" target="XEy3tNZ7Zug2hROYCkF4-15">
          <mxGeometry relative="1" as="geometry" />
        </mxCell>
        <mxCell id="XEy3tNZ7Zug2hROYCkF4-29" style="edgeStyle=none;rounded=0;orthogonalLoop=1;jettySize=auto;html=1;exitX=1;exitY=0.5;exitDx=0;exitDy=0;entryX=0;entryY=0.5;entryDx=0;entryDy=0;endArrow=none;startFill=0;" edge="1" parent="1" source="XEy3tNZ7Zug2hROYCkF4-3" target="XEy3tNZ7Zug2hROYCkF4-28">
          <mxGeometry relative="1" as="geometry" />
        </mxCell>
        <mxCell id="XEy3tNZ7Zug2hROYCkF4-32" style="edgeStyle=none;rounded=0;orthogonalLoop=1;jettySize=auto;html=1;exitX=1;exitY=1;exitDx=0;exitDy=0;entryX=0.5;entryY=0;entryDx=0;entryDy=0;endArrow=none;startFill=0;" edge="1" parent="1" source="XEy3tNZ7Zug2hROYCkF4-3" target="XEy3tNZ7Zug2hROYCkF4-31">
          <mxGeometry relative="1" as="geometry" />
        </mxCell>
        <mxCell id="XEy3tNZ7Zug2hROYCkF4-3" value="Users" style="rounded=0;whiteSpace=wrap;html=1;" vertex="1" parent="1">
          <mxGeometry x="250" y="230" width="120" height="60" as="geometry" />
        </mxCell>
        <mxCell id="XEy3tNZ7Zug2hROYCkF4-41" style="edgeStyle=none;rounded=0;orthogonalLoop=1;jettySize=auto;html=1;exitX=1;exitY=0.5;exitDx=0;exitDy=0;" edge="1" parent="1">
          <mxGeometry relative="1" as="geometry">
            <mxPoint x="879.9999999999995" y="200" as="sourcePoint" />
            <mxPoint x="1109.9999999999995" y="430" as="targetPoint" />
          </mxGeometry>
        </mxCell>
        <mxCell id="XEy3tNZ7Zug2hROYCkF4-100" style="edgeStyle=none;rounded=0;orthogonalLoop=1;jettySize=auto;html=1;exitX=0.5;exitY=0;exitDx=0;exitDy=0;entryX=0.85;entryY=0.94;entryDx=0;entryDy=0;entryPerimeter=0;endArrow=none;startFill=0;" edge="1" parent="1" source="XEy3tNZ7Zug2hROYCkF4-4" target="XEy3tNZ7Zug2hROYCkF4-93">
          <mxGeometry relative="1" as="geometry" />
        </mxCell>
        <mxCell id="XEy3tNZ7Zug2hROYCkF4-102" style="edgeStyle=none;rounded=0;orthogonalLoop=1;jettySize=auto;html=1;exitX=0.5;exitY=0;exitDx=0;exitDy=0;endArrow=none;startFill=0;" edge="1" parent="1" source="XEy3tNZ7Zug2hROYCkF4-4" target="XEy3tNZ7Zug2hROYCkF4-94">
          <mxGeometry relative="1" as="geometry" />
        </mxCell>
        <mxCell id="XEy3tNZ7Zug2hROYCkF4-103" style="edgeStyle=none;rounded=0;orthogonalLoop=1;jettySize=auto;html=1;exitX=0.75;exitY=0;exitDx=0;exitDy=0;entryX=0;entryY=1;entryDx=0;entryDy=0;endArrow=none;startFill=0;" edge="1" parent="1" source="XEy3tNZ7Zug2hROYCkF4-4" target="XEy3tNZ7Zug2hROYCkF4-97">
          <mxGeometry relative="1" as="geometry" />
        </mxCell>
        <mxCell id="XEy3tNZ7Zug2hROYCkF4-104" style="edgeStyle=none;rounded=0;orthogonalLoop=1;jettySize=auto;html=1;exitX=0.75;exitY=0;exitDx=0;exitDy=0;endArrow=none;startFill=0;" edge="1" parent="1" source="XEy3tNZ7Zug2hROYCkF4-4" target="XEy3tNZ7Zug2hROYCkF4-96">
          <mxGeometry relative="1" as="geometry" />
        </mxCell>
        <mxCell id="XEy3tNZ7Zug2hROYCkF4-106" style="edgeStyle=none;rounded=0;orthogonalLoop=1;jettySize=auto;html=1;exitX=0.75;exitY=0;exitDx=0;exitDy=0;endArrow=none;startFill=0;" edge="1" parent="1" source="XEy3tNZ7Zug2hROYCkF4-4" target="XEy3tNZ7Zug2hROYCkF4-99">
          <mxGeometry relative="1" as="geometry" />
        </mxCell>
        <mxCell id="XEy3tNZ7Zug2hROYCkF4-4" value="Orders" style="rounded=0;whiteSpace=wrap;html=1;" vertex="1" parent="1">
          <mxGeometry x="770" y="150" width="120" height="60" as="geometry" />
        </mxCell>
        <mxCell id="XEy3tNZ7Zug2hROYCkF4-115" style="edgeStyle=none;rounded=0;orthogonalLoop=1;jettySize=auto;html=1;endArrow=none;startFill=0;" edge="1" parent="1" source="XEy3tNZ7Zug2hROYCkF4-6" target="XEy3tNZ7Zug2hROYCkF4-108">
          <mxGeometry relative="1" as="geometry" />
        </mxCell>
        <mxCell id="XEy3tNZ7Zug2hROYCkF4-116" style="edgeStyle=none;rounded=0;orthogonalLoop=1;jettySize=auto;html=1;exitX=1;exitY=0.75;exitDx=0;exitDy=0;entryX=0;entryY=0;entryDx=0;entryDy=0;endArrow=none;startFill=0;" edge="1" parent="1" source="XEy3tNZ7Zug2hROYCkF4-6" target="XEy3tNZ7Zug2hROYCkF4-109">
          <mxGeometry relative="1" as="geometry" />
        </mxCell>
        <mxCell id="XEy3tNZ7Zug2hROYCkF4-117" style="edgeStyle=none;rounded=0;orthogonalLoop=1;jettySize=auto;html=1;exitX=1;exitY=1;exitDx=0;exitDy=0;endArrow=none;startFill=0;" edge="1" parent="1" source="XEy3tNZ7Zug2hROYCkF4-6" target="XEy3tNZ7Zug2hROYCkF4-110">
          <mxGeometry relative="1" as="geometry" />
        </mxCell>
        <mxCell id="XEy3tNZ7Zug2hROYCkF4-118" style="edgeStyle=none;rounded=0;orthogonalLoop=1;jettySize=auto;html=1;exitX=0.75;exitY=1;exitDx=0;exitDy=0;endArrow=none;startFill=0;" edge="1" parent="1" source="XEy3tNZ7Zug2hROYCkF4-6" target="XEy3tNZ7Zug2hROYCkF4-111">
          <mxGeometry relative="1" as="geometry" />
        </mxCell>
        <mxCell id="XEy3tNZ7Zug2hROYCkF4-119" style="edgeStyle=none;rounded=0;orthogonalLoop=1;jettySize=auto;html=1;exitX=0.5;exitY=1;exitDx=0;exitDy=0;endArrow=none;startFill=0;" edge="1" parent="1" source="XEy3tNZ7Zug2hROYCkF4-6" target="XEy3tNZ7Zug2hROYCkF4-112">
          <mxGeometry relative="1" as="geometry" />
        </mxCell>
        <mxCell id="XEy3tNZ7Zug2hROYCkF4-120" style="edgeStyle=none;rounded=0;orthogonalLoop=1;jettySize=auto;html=1;exitX=0.25;exitY=1;exitDx=0;exitDy=0;endArrow=none;startFill=0;" edge="1" parent="1" source="XEy3tNZ7Zug2hROYCkF4-6" target="XEy3tNZ7Zug2hROYCkF4-113">
          <mxGeometry relative="1" as="geometry" />
        </mxCell>
        <mxCell id="XEy3tNZ7Zug2hROYCkF4-6" value="Promotion" style="rounded=0;whiteSpace=wrap;html=1;" vertex="1" parent="1">
          <mxGeometry x="1350" y="400" width="120" height="60" as="geometry" />
        </mxCell>
        <mxCell id="XEy3tNZ7Zug2hROYCkF4-35" style="edgeStyle=none;rounded=0;orthogonalLoop=1;jettySize=auto;html=1;exitX=1;exitY=0.5;exitDx=0;exitDy=0;entryX=0;entryY=0.5;entryDx=0;entryDy=0;endArrow=none;startFill=0;" edge="1" parent="1" source="XEy3tNZ7Zug2hROYCkF4-7" target="XEy3tNZ7Zug2hROYCkF4-34">
          <mxGeometry relative="1" as="geometry" />
        </mxCell>
        <mxCell id="XEy3tNZ7Zug2hROYCkF4-56" style="edgeStyle=none;rounded=0;orthogonalLoop=1;jettySize=auto;html=1;exitX=0;exitY=0;exitDx=0;exitDy=0;entryX=1;entryY=0.5;entryDx=0;entryDy=0;endArrow=none;startFill=0;" edge="1" parent="1" source="XEy3tNZ7Zug2hROYCkF4-7" target="XEy3tNZ7Zug2hROYCkF4-49">
          <mxGeometry relative="1" as="geometry" />
        </mxCell>
        <mxCell id="XEy3tNZ7Zug2hROYCkF4-59" style="edgeStyle=none;rounded=0;orthogonalLoop=1;jettySize=auto;html=1;exitX=0;exitY=0.75;exitDx=0;exitDy=0;endArrow=none;startFill=0;" edge="1" parent="1" source="XEy3tNZ7Zug2hROYCkF4-7" target="XEy3tNZ7Zug2hROYCkF4-52">
          <mxGeometry relative="1" as="geometry" />
        </mxCell>
        <mxCell id="XEy3tNZ7Zug2hROYCkF4-60" style="edgeStyle=none;rounded=0;orthogonalLoop=1;jettySize=auto;html=1;exitX=0.25;exitY=1;exitDx=0;exitDy=0;endArrow=none;startFill=0;" edge="1" parent="1" source="XEy3tNZ7Zug2hROYCkF4-7" target="XEy3tNZ7Zug2hROYCkF4-53">
          <mxGeometry relative="1" as="geometry" />
        </mxCell>
        <mxCell id="XEy3tNZ7Zug2hROYCkF4-61" style="edgeStyle=none;rounded=0;orthogonalLoop=1;jettySize=auto;html=1;exitX=0.5;exitY=1;exitDx=0;exitDy=0;endArrow=none;startFill=0;" edge="1" parent="1" source="XEy3tNZ7Zug2hROYCkF4-7" target="XEy3tNZ7Zug2hROYCkF4-54">
          <mxGeometry relative="1" as="geometry" />
        </mxCell>
        <mxCell id="XEy3tNZ7Zug2hROYCkF4-7" value="Reviews&lt;span style=&quot;color: rgba(0, 0, 0, 0); font-family: monospace; font-size: 0px; text-align: start; text-wrap-mode: nowrap;&quot;&gt;%3CmxGraphModel%3E%3Croot%3E%3CmxCell%20id%3D%220%22%2F%3E%3CmxCell%20id%3D%221%22%20parent%3D%220%22%2F%3E%3CmxCell%20id%3D%222%22%20value%3D%22Product%22%20style%3D%22rounded%3D0%3BwhiteSpace%3Dwrap%3Bhtml%3D1%3B%22%20vertex%3D%221%22%20parent%3D%221%22%3E%3CmxGeometry%20x%3D%22150%22%20y%3D%22110%22%20width%3D%22120%22%20height%3D%2260%22%20as%3D%22geometry%22%2F%3E%3C%2FmxCell%3E%3C%2Froot%3E%3C%2FmxGraphModel%3E&lt;/span&gt;" style="rounded=0;whiteSpace=wrap;html=1;" vertex="1" parent="1">
          <mxGeometry x="370" y="590" width="120" height="60" as="geometry" />
        </mxCell>
        <mxCell id="XEy3tNZ7Zug2hROYCkF4-44" style="edgeStyle=none;rounded=0;orthogonalLoop=1;jettySize=auto;html=1;exitX=0;exitY=0.5;exitDx=0;exitDy=0;endArrow=none;startFill=0;" edge="1" parent="1" source="XEy3tNZ7Zug2hROYCkF4-8" target="XEy3tNZ7Zug2hROYCkF4-43">
          <mxGeometry relative="1" as="geometry" />
        </mxCell>
        <mxCell id="XEy3tNZ7Zug2hROYCkF4-128" style="edgeStyle=none;rounded=0;orthogonalLoop=1;jettySize=auto;html=1;exitX=0;exitY=0;exitDx=0;exitDy=0;endArrow=none;startFill=0;" edge="1" parent="1" source="XEy3tNZ7Zug2hROYCkF4-8" target="XEy3tNZ7Zug2hROYCkF4-121">
          <mxGeometry relative="1" as="geometry" />
        </mxCell>
        <mxCell id="XEy3tNZ7Zug2hROYCkF4-129" style="edgeStyle=none;rounded=0;orthogonalLoop=1;jettySize=auto;html=1;exitX=0.159;exitY=-0.032;exitDx=0;exitDy=0;entryX=1;entryY=1;entryDx=0;entryDy=0;exitPerimeter=0;endArrow=none;startFill=0;" edge="1" parent="1" source="XEy3tNZ7Zug2hROYCkF4-8" target="XEy3tNZ7Zug2hROYCkF4-122">
          <mxGeometry relative="1" as="geometry" />
        </mxCell>
        <mxCell id="XEy3tNZ7Zug2hROYCkF4-130" style="edgeStyle=none;rounded=0;orthogonalLoop=1;jettySize=auto;html=1;exitX=0.313;exitY=-0.045;exitDx=0;exitDy=0;exitPerimeter=0;endArrow=none;startFill=0;" edge="1" parent="1" source="XEy3tNZ7Zug2hROYCkF4-8" target="XEy3tNZ7Zug2hROYCkF4-123">
          <mxGeometry relative="1" as="geometry" />
        </mxCell>
        <mxCell id="XEy3tNZ7Zug2hROYCkF4-132" style="edgeStyle=none;rounded=0;orthogonalLoop=1;jettySize=auto;html=1;exitX=0.794;exitY=-0.006;exitDx=0;exitDy=0;exitPerimeter=0;endArrow=none;startFill=0;" edge="1" parent="1" source="XEy3tNZ7Zug2hROYCkF4-8" target="XEy3tNZ7Zug2hROYCkF4-125">
          <mxGeometry relative="1" as="geometry" />
        </mxCell>
        <mxCell id="XEy3tNZ7Zug2hROYCkF4-8" value="Payments" style="rounded=0;whiteSpace=wrap;html=1;" vertex="1" parent="1">
          <mxGeometry x="1460" y="150" width="120" height="60" as="geometry" />
        </mxCell>
        <mxCell id="XEy3tNZ7Zug2hROYCkF4-9" value="username" style="ellipse;whiteSpace=wrap;html=1;" vertex="1" parent="1">
          <mxGeometry x="100" y="60" width="120" height="50" as="geometry" />
        </mxCell>
        <mxCell id="XEy3tNZ7Zug2hROYCkF4-10" value="password" style="ellipse;whiteSpace=wrap;html=1;" vertex="1" parent="1">
          <mxGeometry x="70" y="120" width="120" height="50" as="geometry" />
        </mxCell>
        <mxCell id="XEy3tNZ7Zug2hROYCkF4-11" value="email" style="ellipse;whiteSpace=wrap;html=1;" vertex="1" parent="1">
          <mxGeometry x="50" y="180" width="120" height="50" as="geometry" />
        </mxCell>
        <mxCell id="XEy3tNZ7Zug2hROYCkF4-12" value="phone&lt;span style=&quot;color: rgba(0, 0, 0, 0); font-family: monospace; font-size: 0px; text-align: start; text-wrap-mode: nowrap;&quot;&gt;%3CmxGraphModel%3E%3Croot%3E%3CmxCell%20id%3D%220%22%2F%3E%3CmxCell%20id%3D%221%22%20parent%3D%220%22%2F%3E%3CmxCell%20id%3D%222%22%20value%3D%22id%22%20style%3D%22ellipse%3BwhiteSpace%3Dwrap%3Bhtml%3D1%3B%22%20vertex%3D%221%22%20parent%3D%221%22%3E%3CmxGeometry%20y%3D%22180%22%20width%3D%22120%22%20height%3D%2250%22%20as%3D%22geometry%22%2F%3E%3C%2FmxCell%3E%3C%2Froot%3E%3C%2FmxGraphModel%3E&lt;/span&gt;" style="ellipse;whiteSpace=wrap;html=1;" vertex="1" parent="1">
          <mxGeometry x="30" y="240" width="120" height="50" as="geometry" />
        </mxCell>
        <mxCell id="XEy3tNZ7Zug2hROYCkF4-13" value="address" style="ellipse;whiteSpace=wrap;html=1;" vertex="1" parent="1">
          <mxGeometry x="20" y="300" width="120" height="50" as="geometry" />
        </mxCell>
        <mxCell id="XEy3tNZ7Zug2hROYCkF4-14" value="role" style="ellipse;whiteSpace=wrap;html=1;" vertex="1" parent="1">
          <mxGeometry x="20" y="370" width="120" height="50" as="geometry" />
        </mxCell>
        <mxCell id="XEy3tNZ7Zug2hROYCkF4-15" value="create_at" style="ellipse;whiteSpace=wrap;html=1;" vertex="1" parent="1">
          <mxGeometry x="20" y="430" width="120" height="50" as="geometry" />
        </mxCell>
        <mxCell id="XEy3tNZ7Zug2hROYCkF4-16" value="update_at" style="ellipse;whiteSpace=wrap;html=1;" vertex="1" parent="1">
          <mxGeometry x="50" y="490" width="120" height="50" as="geometry" />
        </mxCell>
        <mxCell id="XEy3tNZ7Zug2hROYCkF4-18" style="rounded=0;orthogonalLoop=1;jettySize=auto;html=1;exitX=0.5;exitY=0;exitDx=0;exitDy=0;entryX=0.5;entryY=1;entryDx=0;entryDy=0;endArrow=none;startFill=0;" edge="1" parent="1" source="XEy3tNZ7Zug2hROYCkF4-3" target="XEy3tNZ7Zug2hROYCkF4-2">
          <mxGeometry relative="1" as="geometry" />
        </mxCell>
        <mxCell id="XEy3tNZ7Zug2hROYCkF4-22" style="edgeStyle=none;rounded=0;orthogonalLoop=1;jettySize=auto;html=1;exitX=0;exitY=0.25;exitDx=0;exitDy=0;endArrow=none;startFill=0;" edge="1" parent="1" source="XEy3tNZ7Zug2hROYCkF4-3" target="XEy3tNZ7Zug2hROYCkF4-11">
          <mxGeometry relative="1" as="geometry">
            <mxPoint x="260" y="270" as="sourcePoint" />
            <mxPoint x="164" y="178" as="targetPoint" />
          </mxGeometry>
        </mxCell>
        <mxCell id="XEy3tNZ7Zug2hROYCkF4-27" style="edgeStyle=none;rounded=0;orthogonalLoop=1;jettySize=auto;html=1;exitX=0.5;exitY=1;exitDx=0;exitDy=0;entryX=0.758;entryY=0.1;entryDx=0;entryDy=0;entryPerimeter=0;endArrow=none;startFill=0;" edge="1" parent="1" source="XEy3tNZ7Zug2hROYCkF4-3" target="XEy3tNZ7Zug2hROYCkF4-16">
          <mxGeometry relative="1" as="geometry" />
        </mxCell>
        <mxCell id="XEy3tNZ7Zug2hROYCkF4-30" style="edgeStyle=none;rounded=0;orthogonalLoop=1;jettySize=auto;html=1;exitX=1;exitY=0.5;exitDx=0;exitDy=0;entryX=0;entryY=0.5;entryDx=0;entryDy=0;endArrow=none;startFill=0;" edge="1" parent="1" source="XEy3tNZ7Zug2hROYCkF4-28" target="XEy3tNZ7Zug2hROYCkF4-4">
          <mxGeometry relative="1" as="geometry" />
        </mxCell>
        <mxCell id="XEy3tNZ7Zug2hROYCkF4-28" value="has" style="rhombus;whiteSpace=wrap;html=1;" vertex="1" parent="1">
          <mxGeometry x="540" y="140" width="80" height="80" as="geometry" />
        </mxCell>
        <mxCell id="XEy3tNZ7Zug2hROYCkF4-33" style="edgeStyle=none;rounded=0;orthogonalLoop=1;jettySize=auto;html=1;endArrow=none;startFill=0;" edge="1" parent="1" source="XEy3tNZ7Zug2hROYCkF4-31" target="XEy3tNZ7Zug2hROYCkF4-7">
          <mxGeometry relative="1" as="geometry" />
        </mxCell>
        <mxCell id="XEy3tNZ7Zug2hROYCkF4-31" value="has" style="rhombus;whiteSpace=wrap;html=1;" vertex="1" parent="1">
          <mxGeometry x="390" y="390" width="80" height="80" as="geometry" />
        </mxCell>
        <mxCell id="XEy3tNZ7Zug2hROYCkF4-36" style="edgeStyle=none;rounded=0;orthogonalLoop=1;jettySize=auto;html=1;exitX=1;exitY=0.5;exitDx=0;exitDy=0;entryX=0;entryY=0.5;entryDx=0;entryDy=0;endArrow=none;startFill=0;" edge="1" parent="1" source="XEy3tNZ7Zug2hROYCkF4-34" target="XEy3tNZ7Zug2hROYCkF4-1">
          <mxGeometry relative="1" as="geometry" />
        </mxCell>
        <mxCell id="XEy3tNZ7Zug2hROYCkF4-34" value="has" style="rhombus;whiteSpace=wrap;html=1;" vertex="1" parent="1">
          <mxGeometry x="590" y="580" width="80" height="80" as="geometry" />
        </mxCell>
        <mxCell id="XEy3tNZ7Zug2hROYCkF4-39" style="edgeStyle=none;rounded=0;orthogonalLoop=1;jettySize=auto;html=1;exitX=0.5;exitY=0;exitDx=0;exitDy=0;entryX=0.5;entryY=1;entryDx=0;entryDy=0;endArrow=none;startFill=0;" edge="1" parent="1" source="XEy3tNZ7Zug2hROYCkF4-37" target="XEy3tNZ7Zug2hROYCkF4-4">
          <mxGeometry relative="1" as="geometry">
            <mxPoint x="830" y="400" as="targetPoint" />
          </mxGeometry>
        </mxCell>
        <mxCell id="XEy3tNZ7Zug2hROYCkF4-91" style="edgeStyle=none;rounded=0;orthogonalLoop=1;jettySize=auto;html=1;exitX=0.017;exitY=0.577;exitDx=0;exitDy=0;entryX=0.942;entryY=0.34;entryDx=0;entryDy=0;entryPerimeter=0;exitPerimeter=0;endArrow=none;startFill=0;" edge="1" parent="1" source="XEy3tNZ7Zug2hROYCkF4-37" target="XEy3tNZ7Zug2hROYCkF4-89">
          <mxGeometry relative="1" as="geometry" />
        </mxCell>
        <mxCell id="XEy3tNZ7Zug2hROYCkF4-37" value="OrderItem" style="rhombus;whiteSpace=wrap;html=1;" vertex="1" parent="1">
          <mxGeometry x="790" y="390" width="80" height="80" as="geometry" />
        </mxCell>
        <mxCell id="XEy3tNZ7Zug2hROYCkF4-42" style="edgeStyle=none;rounded=0;orthogonalLoop=1;jettySize=auto;html=1;exitX=1;exitY=0.5;exitDx=0;exitDy=0;entryX=0;entryY=0.5;entryDx=0;entryDy=0;endArrow=none;startFill=0;" edge="1" parent="1" source="XEy3tNZ7Zug2hROYCkF4-40" target="XEy3tNZ7Zug2hROYCkF4-6">
          <mxGeometry relative="1" as="geometry" />
        </mxCell>
        <mxCell id="XEy3tNZ7Zug2hROYCkF4-40" value="has" style="rhombus;whiteSpace=wrap;html=1;" vertex="1" parent="1">
          <mxGeometry x="1100" y="390" width="80" height="80" as="geometry" />
        </mxCell>
        <mxCell id="XEy3tNZ7Zug2hROYCkF4-45" style="edgeStyle=none;rounded=0;orthogonalLoop=1;jettySize=auto;html=1;endArrow=none;startFill=0;" edge="1" parent="1" source="XEy3tNZ7Zug2hROYCkF4-43" target="XEy3tNZ7Zug2hROYCkF4-4">
          <mxGeometry relative="1" as="geometry" />
        </mxCell>
        <mxCell id="XEy3tNZ7Zug2hROYCkF4-43" value="has" style="rhombus;whiteSpace=wrap;html=1;" vertex="1" parent="1">
          <mxGeometry x="1110" y="140" width="80" height="80" as="geometry" />
        </mxCell>
        <mxCell id="XEy3tNZ7Zug2hROYCkF4-49" value="id" style="ellipse;whiteSpace=wrap;html=1;" vertex="1" parent="1">
          <mxGeometry x="170" y="550" width="120" height="50" as="geometry" />
        </mxCell>
        <mxCell id="XEy3tNZ7Zug2hROYCkF4-50" value="user_id" style="ellipse;whiteSpace=wrap;html=1;" vertex="1" parent="1">
          <mxGeometry x="150" y="610" width="120" height="50" as="geometry" />
        </mxCell>
        <mxCell id="XEy3tNZ7Zug2hROYCkF4-51" value="product_id" style="ellipse;whiteSpace=wrap;html=1;" vertex="1" parent="1">
          <mxGeometry x="180" y="670" width="120" height="50" as="geometry" />
        </mxCell>
        <mxCell id="XEy3tNZ7Zug2hROYCkF4-52" value="rating" style="ellipse;whiteSpace=wrap;html=1;" vertex="1" parent="1">
          <mxGeometry x="240" y="720" width="120" height="50" as="geometry" />
        </mxCell>
        <mxCell id="XEy3tNZ7Zug2hROYCkF4-53" value="comment" style="ellipse;whiteSpace=wrap;html=1;" vertex="1" parent="1">
          <mxGeometry x="370" y="750" width="120" height="50" as="geometry" />
        </mxCell>
        <mxCell id="XEy3tNZ7Zug2hROYCkF4-54" value="create_at" style="ellipse;whiteSpace=wrap;html=1;" vertex="1" parent="1">
          <mxGeometry x="490" y="720" width="120" height="50" as="geometry" />
        </mxCell>
        <mxCell id="XEy3tNZ7Zug2hROYCkF4-57" style="edgeStyle=none;rounded=0;orthogonalLoop=1;jettySize=auto;html=1;exitX=0;exitY=0.25;exitDx=0;exitDy=0;entryX=0.931;entryY=0.36;entryDx=0;entryDy=0;entryPerimeter=0;endArrow=none;startFill=0;" edge="1" parent="1" source="XEy3tNZ7Zug2hROYCkF4-7" target="XEy3tNZ7Zug2hROYCkF4-50">
          <mxGeometry relative="1" as="geometry" />
        </mxCell>
        <mxCell id="XEy3tNZ7Zug2hROYCkF4-58" style="edgeStyle=none;rounded=0;orthogonalLoop=1;jettySize=auto;html=1;exitX=0;exitY=0.5;exitDx=0;exitDy=0;entryX=0.614;entryY=0.12;entryDx=0;entryDy=0;entryPerimeter=0;endArrow=none;startFill=0;" edge="1" parent="1" source="XEy3tNZ7Zug2hROYCkF4-7" target="XEy3tNZ7Zug2hROYCkF4-51">
          <mxGeometry relative="1" as="geometry" />
        </mxCell>
        <mxCell id="XEy3tNZ7Zug2hROYCkF4-63" value="id" style="ellipse;whiteSpace=wrap;html=1;" vertex="1" parent="1">
          <mxGeometry x="630" y="710" width="120" height="50" as="geometry" />
        </mxCell>
        <mxCell id="XEy3tNZ7Zug2hROYCkF4-64" value="name" style="ellipse;whiteSpace=wrap;html=1;" vertex="1" parent="1">
          <mxGeometry x="640" y="790" width="120" height="50" as="geometry" />
        </mxCell>
        <mxCell id="XEy3tNZ7Zug2hROYCkF4-65" value="description" style="ellipse;whiteSpace=wrap;html=1;" vertex="1" parent="1">
          <mxGeometry x="690" y="890" width="120" height="50" as="geometry" />
        </mxCell>
        <mxCell id="XEy3tNZ7Zug2hROYCkF4-66" value="price" style="ellipse;whiteSpace=wrap;html=1;" vertex="1" parent="1">
          <mxGeometry x="840" y="770" width="120" height="50" as="geometry" />
        </mxCell>
        <mxCell id="XEy3tNZ7Zug2hROYCkF4-67" value="stock" style="ellipse;whiteSpace=wrap;html=1;" vertex="1" parent="1">
          <mxGeometry x="790" y="840" width="120" height="50" as="geometry" />
        </mxCell>
        <mxCell id="XEy3tNZ7Zug2hROYCkF4-68" value="iamge_url" style="ellipse;whiteSpace=wrap;html=1;" vertex="1" parent="1">
          <mxGeometry x="970" y="810" width="120" height="50" as="geometry" />
        </mxCell>
        <mxCell id="XEy3tNZ7Zug2hROYCkF4-69" value="metadata" style="ellipse;whiteSpace=wrap;html=1;" vertex="1" parent="1">
          <mxGeometry x="980" y="740" width="120" height="50" as="geometry" />
        </mxCell>
        <mxCell id="XEy3tNZ7Zug2hROYCkF4-70" value="create_at" style="ellipse;whiteSpace=wrap;html=1;" vertex="1" parent="1">
          <mxGeometry x="1070" y="700" width="120" height="50" as="geometry" />
        </mxCell>
        <mxCell id="XEy3tNZ7Zug2hROYCkF4-71" value="update_at" style="ellipse;whiteSpace=wrap;html=1;" vertex="1" parent="1">
          <mxGeometry x="1030" y="640" width="120" height="50" as="geometry" />
        </mxCell>
        <mxCell id="XEy3tNZ7Zug2hROYCkF4-72" value="delte_at" style="ellipse;whiteSpace=wrap;html=1;" vertex="1" parent="1">
          <mxGeometry x="1150" y="590" width="120" height="50" as="geometry" />
        </mxCell>
        <mxCell id="XEy3tNZ7Zug2hROYCkF4-83" style="edgeStyle=none;rounded=0;orthogonalLoop=1;jettySize=auto;html=1;exitX=1;exitY=0;exitDx=0;exitDy=0;" edge="1" parent="1" source="XEy3tNZ7Zug2hROYCkF4-40" target="XEy3tNZ7Zug2hROYCkF4-40">
          <mxGeometry relative="1" as="geometry" />
        </mxCell>
        <mxCell id="XEy3tNZ7Zug2hROYCkF4-88" value="quantity" style="ellipse;whiteSpace=wrap;html=1;" vertex="1" parent="1">
          <mxGeometry x="630" y="340" width="120" height="50" as="geometry" />
        </mxCell>
        <mxCell id="XEy3tNZ7Zug2hROYCkF4-89" value="unit_price" style="ellipse;whiteSpace=wrap;html=1;" vertex="1" parent="1">
          <mxGeometry x="600" y="450" width="120" height="50" as="geometry" />
        </mxCell>
        <mxCell id="XEy3tNZ7Zug2hROYCkF4-90" style="edgeStyle=none;rounded=0;orthogonalLoop=1;jettySize=auto;html=1;exitX=0;exitY=0.5;exitDx=0;exitDy=0;entryX=0.671;entryY=1.007;entryDx=0;entryDy=0;entryPerimeter=0;endArrow=none;startFill=0;" edge="1" parent="1" source="XEy3tNZ7Zug2hROYCkF4-37" target="XEy3tNZ7Zug2hROYCkF4-88">
          <mxGeometry relative="1" as="geometry" />
        </mxCell>
        <mxCell id="XEy3tNZ7Zug2hROYCkF4-93" value="id" style="ellipse;whiteSpace=wrap;html=1;" vertex="1" parent="1">
          <mxGeometry x="480" y="40" width="120" height="50" as="geometry" />
        </mxCell>
        <mxCell id="XEy3tNZ7Zug2hROYCkF4-94" value="user_id" style="ellipse;whiteSpace=wrap;html=1;" vertex="1" parent="1">
          <mxGeometry x="590" y="-70" width="120" height="50" as="geometry" />
        </mxCell>
        <mxCell id="XEy3tNZ7Zug2hROYCkF4-95" value="promotion_id" style="ellipse;whiteSpace=wrap;html=1;" vertex="1" parent="1">
          <mxGeometry x="570" width="120" height="50" as="geometry" />
        </mxCell>
        <mxCell id="XEy3tNZ7Zug2hROYCkF4-96" value="total_amount" style="ellipse;whiteSpace=wrap;html=1;" vertex="1" parent="1">
          <mxGeometry x="710" y="-40" width="120" height="50" as="geometry" />
        </mxCell>
        <mxCell id="XEy3tNZ7Zug2hROYCkF4-97" value="status" style="ellipse;whiteSpace=wrap;html=1;" vertex="1" parent="1">
          <mxGeometry x="810" y="-90" width="120" height="50" as="geometry" />
        </mxCell>
        <mxCell id="XEy3tNZ7Zug2hROYCkF4-98" value="create_at" style="ellipse;whiteSpace=wrap;html=1;" vertex="1" parent="1">
          <mxGeometry x="860" y="-30" width="120" height="50" as="geometry" />
        </mxCell>
        <mxCell id="XEy3tNZ7Zug2hROYCkF4-99" value="update_at" style="ellipse;whiteSpace=wrap;html=1;" vertex="1" parent="1">
          <mxGeometry x="980" y="-50" width="120" height="50" as="geometry" />
        </mxCell>
        <mxCell id="XEy3tNZ7Zug2hROYCkF4-101" style="edgeStyle=none;rounded=0;orthogonalLoop=1;jettySize=auto;html=1;exitX=0.5;exitY=0;exitDx=0;exitDy=0;entryX=0.815;entryY=0.911;entryDx=0;entryDy=0;entryPerimeter=0;endArrow=none;startFill=0;" edge="1" parent="1" source="XEy3tNZ7Zug2hROYCkF4-4" target="XEy3tNZ7Zug2hROYCkF4-95">
          <mxGeometry relative="1" as="geometry" />
        </mxCell>
        <mxCell id="XEy3tNZ7Zug2hROYCkF4-105" style="edgeStyle=none;rounded=0;orthogonalLoop=1;jettySize=auto;html=1;exitX=0.75;exitY=0;exitDx=0;exitDy=0;entryX=0.286;entryY=0.863;entryDx=0;entryDy=0;entryPerimeter=0;endArrow=none;startFill=0;" edge="1" parent="1" source="XEy3tNZ7Zug2hROYCkF4-4" target="XEy3tNZ7Zug2hROYCkF4-98">
          <mxGeometry relative="1" as="geometry" />
        </mxCell>
        <mxCell id="XEy3tNZ7Zug2hROYCkF4-107" value="id" style="ellipse;whiteSpace=wrap;html=1;" vertex="1" parent="1">
          <mxGeometry x="1530" y="330" width="120" height="50" as="geometry" />
        </mxCell>
        <mxCell id="XEy3tNZ7Zug2hROYCkF4-108" value="code" style="ellipse;whiteSpace=wrap;html=1;" vertex="1" parent="1">
          <mxGeometry x="1550" y="380" width="120" height="50" as="geometry" />
        </mxCell>
        <mxCell id="XEy3tNZ7Zug2hROYCkF4-109" value="discount_percentage" style="ellipse;whiteSpace=wrap;html=1;" vertex="1" parent="1">
          <mxGeometry x="1550" y="440" width="120" height="50" as="geometry" />
        </mxCell>
        <mxCell id="XEy3tNZ7Zug2hROYCkF4-110" value="start_date" style="ellipse;whiteSpace=wrap;html=1;" vertex="1" parent="1">
          <mxGeometry x="1550" y="490" width="120" height="50" as="geometry" />
        </mxCell>
        <mxCell id="XEy3tNZ7Zug2hROYCkF4-111" value="end_date" style="ellipse;whiteSpace=wrap;html=1;" vertex="1" parent="1">
          <mxGeometry x="1520" y="550" width="120" height="50" as="geometry" />
        </mxCell>
        <mxCell id="XEy3tNZ7Zug2hROYCkF4-112" value="create_at" style="ellipse;whiteSpace=wrap;html=1;" vertex="1" parent="1">
          <mxGeometry x="1440" y="600" width="120" height="50" as="geometry" />
        </mxCell>
        <mxCell id="XEy3tNZ7Zug2hROYCkF4-113" value="update_at" style="ellipse;whiteSpace=wrap;html=1;" vertex="1" parent="1">
          <mxGeometry x="1350" y="640" width="120" height="50" as="geometry" />
        </mxCell>
        <mxCell id="XEy3tNZ7Zug2hROYCkF4-114" style="edgeStyle=none;rounded=0;orthogonalLoop=1;jettySize=auto;html=1;exitX=1;exitY=0;exitDx=0;exitDy=0;entryX=0.024;entryY=0.684;entryDx=0;entryDy=0;entryPerimeter=0;endArrow=none;startFill=0;" edge="1" parent="1" source="XEy3tNZ7Zug2hROYCkF4-6" target="XEy3tNZ7Zug2hROYCkF4-107">
          <mxGeometry relative="1" as="geometry" />
        </mxCell>
        <mxCell id="XEy3tNZ7Zug2hROYCkF4-121" value="id" style="ellipse;whiteSpace=wrap;html=1;" vertex="1" parent="1">
          <mxGeometry x="1210" y="60" width="120" height="50" as="geometry" />
        </mxCell>
        <mxCell id="XEy3tNZ7Zug2hROYCkF4-122" value="order_id" style="ellipse;whiteSpace=wrap;html=1;" vertex="1" parent="1">
          <mxGeometry x="1180" width="120" height="50" as="geometry" />
        </mxCell>
        <mxCell id="XEy3tNZ7Zug2hROYCkF4-123" value="amount" style="ellipse;whiteSpace=wrap;html=1;" vertex="1" parent="1">
          <mxGeometry x="1270" y="-30" width="120" height="50" as="geometry" />
        </mxCell>
        <mxCell id="XEy3tNZ7Zug2hROYCkF4-124" value="payment_method" style="ellipse;whiteSpace=wrap;html=1;" vertex="1" parent="1">
          <mxGeometry x="1390" y="-40" width="120" height="50" as="geometry" />
        </mxCell>
        <mxCell id="XEy3tNZ7Zug2hROYCkF4-125" value="transaction_id" style="ellipse;whiteSpace=wrap;html=1;" vertex="1" parent="1">
          <mxGeometry x="1520" y="-30" width="120" height="50" as="geometry" />
        </mxCell>
        <mxCell id="XEy3tNZ7Zug2hROYCkF4-126" value="status" style="ellipse;whiteSpace=wrap;html=1;" vertex="1" parent="1">
          <mxGeometry x="1620" y="-10" width="120" height="50" as="geometry" />
        </mxCell>
        <mxCell id="XEy3tNZ7Zug2hROYCkF4-127" value="create_at" style="ellipse;whiteSpace=wrap;html=1;" vertex="1" parent="1">
          <mxGeometry x="1700" y="50" width="120" height="50" as="geometry" />
        </mxCell>
        <mxCell id="XEy3tNZ7Zug2hROYCkF4-131" style="edgeStyle=none;rounded=0;orthogonalLoop=1;jettySize=auto;html=1;exitX=0.544;exitY=-0.032;exitDx=0;exitDy=0;entryX=0.75;entryY=1;entryDx=0;entryDy=0;entryPerimeter=0;exitPerimeter=0;endArrow=none;startFill=0;" edge="1" parent="1" source="XEy3tNZ7Zug2hROYCkF4-8" target="XEy3tNZ7Zug2hROYCkF4-124">
          <mxGeometry relative="1" as="geometry" />
        </mxCell>
        <mxCell id="XEy3tNZ7Zug2hROYCkF4-133" style="edgeStyle=none;rounded=0;orthogonalLoop=1;jettySize=auto;html=1;entryX=0.397;entryY=1.035;entryDx=0;entryDy=0;entryPerimeter=0;exitX=1;exitY=0;exitDx=0;exitDy=0;endArrow=none;startFill=0;" edge="1" parent="1" source="XEy3tNZ7Zug2hROYCkF4-8" target="XEy3tNZ7Zug2hROYCkF4-126">
          <mxGeometry relative="1" as="geometry" />
        </mxCell>
        <mxCell id="XEy3tNZ7Zug2hROYCkF4-134" style="edgeStyle=none;rounded=0;orthogonalLoop=1;jettySize=auto;html=1;exitX=1;exitY=0.5;exitDx=0;exitDy=0;entryX=0.25;entryY=1;entryDx=0;entryDy=0;entryPerimeter=0;endArrow=none;startFill=0;" edge="1" parent="1" source="XEy3tNZ7Zug2hROYCkF4-8" target="XEy3tNZ7Zug2hROYCkF4-127">
          <mxGeometry relative="1" as="geometry" />
        </mxCell>
      </root>
    </mxGraphModel>
  </diagram>
</mxfile>
